<svg width="150" height="50" viewBox="0 0 150 50" fill="none" xmlns="http://www.w3.org/2000/svg">
<path d="M25 3.2369C29.3043 3.2369 33.512 4.51329 37.0909 6.90465C40.6698 9.296 43.4593 12.6949 45.1065 16.6716C46.7537 20.6483 47.1847 25.0241 46.3449 29.2458C45.5052 33.4674 43.4325 37.3452 40.3888 40.3888C37.3452 43.4324 33.4674 45.5052 29.2458 46.3449C25.0242 47.1846 20.6483 46.7537 16.6716 45.1065C12.6949 43.4593 9.29602 40.6698 6.90466 37.0909C4.5133 33.512 3.23692 29.3043 3.23692 25C3.24344 19.2301 5.53842 13.6983 9.61838 9.61837C13.6983 5.53841 19.2301 3.24342 25 3.2369ZM25 0C20.0555 -8.30606e-07 15.222 1.46622 11.1108 4.21326C6.99952 6.96029 3.79521 10.8648 1.90302 15.4329C0.0108286 20.0011 -0.48425 25.0277 0.48038 29.8772C1.44501 34.7268 3.82603 39.1813 7.32234 42.6777C10.8187 46.174 15.2732 48.555 20.1227 49.5196C24.9723 50.4843 29.9989 49.9892 34.5671 48.097C39.1352 46.2048 43.0397 43.0005 45.7867 38.8892C48.5338 34.778 50 29.9445 50 25C50 21.717 49.3533 18.466 48.097 15.4329C46.8406 12.3998 44.9991 9.64378 42.6777 7.32232C40.3562 5.00085 37.6002 3.15937 34.5671 1.903C31.5339 0.646639 28.2831 -4.41212e-06 25 0Z" fill="white"/>
<path d="M25.0003 38.1516L14.7685 30.4779V37.3293H11.0337V23.0087L25.0003 33.4832L38.9661 23.0087V37.3293H35.2313V30.4779L25.0003 38.1516Z" fill="white"/>
<path d="M25.0001 32.102L11.0337 21.6274V10.9096L25.0001 21.3841L38.966 10.9096V21.6274L25.0001 32.102ZM14.7684 19.7601L25.0001 27.4337L35.2313 19.7601V18.3789L25.0001 26.0524L14.7684 18.3789V19.7601Z" fill="white"/>
<path d="M83.1484 11.0311V26.9584H78.9391V18.4941L75.5261 23.7275H73.1144L69.7015 18.4716V26.9584H65.4922V11.0312H69.474L74.3203 18.4941L79.1666 11.0312L83.1484 11.0311Z" fill="white"/>
<path d="M100.344 11.0311V20.8833C100.344 25.6843 96.7041 27.2993 93.1776 27.2993C89.6507 27.2993 86.0103 25.6842 86.0103 20.8833V11.0311H90.2195V20.6555C90.2195 22.7944 91.38 23.5453 93.1776 23.5453C94.9751 23.5453 96.1352 22.7944 96.1352 20.6555V11.0311H100.344Z" fill="white"/>
<path d="M108.589 10.6901C110.45 10.6637 112.288 11.1016 113.936 11.9642V15.8321C112.476 14.7988 110.718 14.2716 108.931 14.3309C107.383 14.3534 106.906 14.7626 106.906 15.3546C106.906 17.4246 115.188 16.7876 115.188 22.4302C115.188 26.2074 112.298 27.2993 108.817 27.2993C106.687 27.3333 104.583 26.8326 102.696 25.8431V21.8613C104.405 23.0308 106.427 23.6575 108.498 23.6592C110.159 23.6592 110.865 23.3864 110.865 22.5898C110.865 20.292 102.583 21.0654 102.583 15.3771C102.583 12.192 105.313 10.6901 108.589 10.6901Z" fill="white"/>
<path d="M115.482 26.9584L121.739 11.0312H126.29L132.547 26.9584H128.224L127.314 24.4553H120.715L119.805 26.9584H115.482ZM121.967 21.043H126.062L124.424 16.4467C124.232 15.9239 124.094 15.3823 124.015 14.8309C123.935 15.3824 123.798 15.924 123.605 16.4467L121.967 21.043Z" fill="white"/>
<path d="M133.893 26.9584V11.0312H137.875L144.109 20.1782C144.041 19.4272 144.018 18.426 144.018 17.5387V11.0312H148.227V26.9584H144.246L138.012 17.8347C138.08 18.5856 138.102 19.5869 138.102 20.451V26.9584H133.893Z" fill="white"/>
<path d="M69.2645 32.4822C70.0974 32.4758 70.9208 32.66 71.6715 33.0208V33.9835C70.9834 33.5835 70.1981 33.3814 69.4023 33.3995C67.7176 33.3995 65.9754 34.3391 65.9754 36.6314C65.9754 39.0492 67.7404 39.8634 69.4251 39.8634C69.9338 39.8725 70.4383 39.7708 70.9037 39.5654V36.379H71.8661V40.2413C71.0769 40.5961 70.2216 40.7796 69.3564 40.7799C67.1559 40.7799 65.0014 39.6565 65.0014 36.6314C64.9866 36.0728 65.0876 35.5171 65.2981 34.9994C65.5086 34.4817 65.824 34.0132 66.2245 33.6235C66.625 33.2337 67.1019 32.931 67.6251 32.7346C68.1483 32.5382 68.7065 32.4523 69.2645 32.4822Z" fill="white"/>
<path d="M74.3359 40.6424V32.6196H77.4764C78.9202 32.6196 80.4791 33.2157 80.4791 35.0494C80.4924 35.6415 80.2771 36.216 79.878 36.6536C79.4789 37.0912 78.9266 37.3582 78.3358 37.3993L81.052 40.6424H79.8487L77.2239 37.4792H75.2988V40.6424H74.3359ZM75.2987 36.5627H77.522C78.4848 36.5627 79.5047 36.2415 79.5047 35.0494C79.5047 33.8461 78.4848 33.5369 77.522 33.5369H75.2987V36.5627Z" fill="white"/>
<path d="M86.4649 32.4822C87.2835 32.4912 88.0811 32.7422 88.7574 33.2035C89.4336 33.6649 89.9583 34.316 90.2654 35.0749C90.5724 35.8338 90.6481 36.6665 90.4829 37.4683C90.3177 38.2701 89.919 39.0052 89.337 39.5809C88.7549 40.1566 88.0156 40.5472 87.2121 40.7037C86.4085 40.8601 85.5766 40.7754 84.8211 40.46C84.0656 40.1447 83.4203 39.613 82.9663 38.9317C82.5124 38.2504 82.2702 37.4501 82.2701 36.6315C82.2486 36.0769 82.3428 35.524 82.5467 35.0079C82.7505 34.4917 83.0595 34.0236 83.454 33.6334C83.8486 33.2431 84.32 32.9393 84.8384 32.7411C85.3567 32.5429 85.9106 32.4547 86.4649 32.4822ZM86.4649 33.3995C85.8251 33.3972 85.1991 33.5848 84.6661 33.9385C84.1331 34.2922 83.717 34.7962 83.4706 35.3866C83.2242 35.9769 83.1585 36.6271 83.2819 37.2549C83.4053 37.8826 83.7122 38.4595 84.1637 38.9127C84.6153 39.3659 85.1911 39.6748 85.8184 39.8005C86.4457 39.9261 87.0961 39.8628 87.6874 39.6185C88.2786 39.3743 88.7841 38.96 89.1397 38.4283C89.4954 37.8965 89.6852 37.2712 89.6852 36.6315C89.7094 36.2017 89.6427 35.7717 89.4896 35.3694C89.3364 34.9671 89.1002 34.6016 88.7964 34.2967C88.4926 33.9918 88.1279 33.7543 87.7262 33.5997C87.3245 33.4451 86.8947 33.3769 86.4649 33.3995Z" fill="white"/>
<path d="M99.4852 32.6196V37.7085C99.4852 40.0008 97.9152 40.7799 96.1386 40.7799C94.3508 40.7799 92.7808 40.0008 92.7808 37.7085V32.6196H93.7432V37.663C93.7432 39.2897 94.7519 39.8634 96.1386 39.8634C97.5141 39.8634 98.5224 39.2897 98.5224 37.663V32.6196H99.4852Z" fill="white"/>
<path d="M104.868 32.6197C106.725 32.6197 108.272 33.2045 108.272 35.21C108.272 37.2155 106.725 37.8004 104.868 37.8004H103.092V40.6424H102.129V32.6196L104.868 32.6197ZM104.914 33.5369H103.092V36.8832H104.914C106.221 36.8832 107.298 36.5628 107.298 35.2101C107.298 33.8461 106.232 33.5369 104.914 33.5369Z" fill="white"/>
</svg>
